<mxfile host="app.diagrams.net" modified="2021-09-06T21:56:33.113Z" agent="5.0 (X11; Linux x86_64) AppleWebKit/537.36 (KHTML, like Gecko) Chrome/92.0.4515.159 Safari/537.36" etag="rH-T7kxG4AkDJOS9FZZW" version="15.1.0" type="github">
  <diagram name="Page-1" id="74e2e168-ea6b-b213-b513-2b3c1d86103e">
    <mxGraphModel dx="2474" dy="1313" grid="1" gridSize="10" guides="1" tooltips="1" connect="1" arrows="1" fold="1" page="1" pageScale="1" pageWidth="1100" pageHeight="850" background="none" math="0" shadow="0">
      <root>
        <mxCell id="0" />
        <mxCell id="1" parent="0" />
        <mxCell id="77e6c97f196da883-1" value="EKS setup" style="swimlane;html=1;childLayout=stackLayout;startSize=20;rounded=0;shadow=0;labelBackgroundColor=none;strokeWidth=1;fontFamily=Verdana;fontSize=8;align=center;" parent="1" vertex="1">
          <mxGeometry x="70" y="40" width="1103" height="850" as="geometry" />
        </mxCell>
        <mxCell id="77e6c97f196da883-2" value="Initial Infrastructure setup" style="swimlane;html=1;startSize=20;" parent="77e6c97f196da883-1" vertex="1">
          <mxGeometry y="20" width="220" height="830" as="geometry">
            <mxRectangle y="20" width="30" height="730" as="alternateBounds" />
          </mxGeometry>
        </mxCell>
        <mxCell id="rMbr4uKZXVMbSfvjZptH-8" value="" style="edgeStyle=orthogonalEdgeStyle;rounded=0;orthogonalLoop=1;jettySize=auto;html=1;" edge="1" parent="77e6c97f196da883-2" source="77e6c97f196da883-8" target="rMbr4uKZXVMbSfvjZptH-7">
          <mxGeometry relative="1" as="geometry" />
        </mxCell>
        <mxCell id="77e6c97f196da883-8" value="Create s3 bucket for terraform state" style="rounded=1;whiteSpace=wrap;html=1;shadow=0;labelBackgroundColor=none;strokeWidth=1;fontFamily=Verdana;fontSize=8;align=center;" parent="77e6c97f196da883-2" vertex="1">
          <mxGeometry x="20" y="65" width="100" height="60" as="geometry" />
        </mxCell>
        <mxCell id="rMbr4uKZXVMbSfvjZptH-7" value="" style="points=[[0,0,0],[0.25,0,0],[0.5,0,0],[0.75,0,0],[1,0,0],[0,1,0],[0.25,1,0],[0.5,1,0],[0.75,1,0],[1,1,0],[0,0.25,0],[0,0.5,0],[0,0.75,0],[1,0.25,0],[1,0.5,0],[1,0.75,0]];outlineConnect=0;fontColor=#232F3E;gradientColor=#60A337;gradientDirection=north;fillColor=#277116;strokeColor=#ffffff;dashed=0;verticalLabelPosition=bottom;verticalAlign=top;align=center;html=1;fontSize=12;fontStyle=0;aspect=fixed;shape=mxgraph.aws4.resourceIcon;resIcon=mxgraph.aws4.s3;" vertex="1" parent="77e6c97f196da883-2">
          <mxGeometry x="31" y="160" width="78" height="78" as="geometry" />
        </mxCell>
        <mxCell id="77e6c97f196da883-3" value="Low level Infra setup" style="swimlane;html=1;startSize=20;labelBorderColor=none;glass=0;" parent="77e6c97f196da883-1" vertex="1">
          <mxGeometry x="220" y="20" width="365" height="830" as="geometry" />
        </mxCell>
        <mxCell id="rMbr4uKZXVMbSfvjZptH-10" value="" style="edgeStyle=orthogonalEdgeStyle;rounded=0;orthogonalLoop=1;jettySize=auto;html=1;" edge="1" parent="77e6c97f196da883-3" source="77e6c97f196da883-11" target="rMbr4uKZXVMbSfvjZptH-9">
          <mxGeometry relative="1" as="geometry" />
        </mxCell>
        <mxCell id="77e6c97f196da883-11" value="Initialize terraform provision" style="rounded=1;whiteSpace=wrap;html=1;shadow=0;labelBackgroundColor=none;strokeWidth=1;fontFamily=Verdana;fontSize=8;align=center;" parent="77e6c97f196da883-3" vertex="1">
          <mxGeometry x="60" y="220" width="100" height="60" as="geometry" />
        </mxCell>
        <mxCell id="rMbr4uKZXVMbSfvjZptH-9" value="" style="outlineConnect=0;dashed=0;verticalLabelPosition=bottom;verticalAlign=top;align=center;html=1;shape=mxgraph.aws3.virtual_private_cloud;fillColor=#F58534;gradientColor=none;" vertex="1" parent="77e6c97f196da883-3">
          <mxGeometry x="71" y="343" width="79.5" height="54" as="geometry" />
        </mxCell>
        <mxCell id="rMbr4uKZXVMbSfvjZptH-11" value="Private subnet" style="points=[[0,0],[0.25,0],[0.5,0],[0.75,0],[1,0],[1,0.25],[1,0.5],[1,0.75],[1,1],[0.75,1],[0.5,1],[0.25,1],[0,1],[0,0.75],[0,0.5],[0,0.25]];outlineConnect=0;gradientColor=none;html=1;whiteSpace=wrap;fontSize=12;fontStyle=0;shape=mxgraph.aws4.group;grIcon=mxgraph.aws4.group_security_group;grStroke=0;strokeColor=#147EBA;fillColor=#E6F2F8;verticalAlign=top;align=left;spacingLeft=30;fontColor=#147EBA;dashed=0;" vertex="1" parent="77e6c97f196da883-3">
          <mxGeometry x="10" y="480" width="80" height="30" as="geometry" />
        </mxCell>
        <mxCell id="rMbr4uKZXVMbSfvjZptH-18" value="" style="group" vertex="1" connectable="0" parent="77e6c97f196da883-3">
          <mxGeometry x="20" y="490" width="90" height="40" as="geometry" />
        </mxCell>
        <mxCell id="rMbr4uKZXVMbSfvjZptH-15" value="Private subnet" style="points=[[0,0],[0.25,0],[0.5,0],[0.75,0],[1,0],[1,0.25],[1,0.5],[1,0.75],[1,1],[0.75,1],[0.5,1],[0.25,1],[0,1],[0,0.75],[0,0.5],[0,0.25]];outlineConnect=0;gradientColor=none;html=1;whiteSpace=wrap;fontSize=12;fontStyle=0;shape=mxgraph.aws4.group;grIcon=mxgraph.aws4.group_security_group;grStroke=0;strokeColor=#147EBA;fillColor=#E6F2F8;verticalAlign=top;align=left;spacingLeft=30;fontColor=#147EBA;dashed=0;" vertex="1" parent="rMbr4uKZXVMbSfvjZptH-18">
          <mxGeometry width="80" height="30" as="geometry" />
        </mxCell>
        <mxCell id="rMbr4uKZXVMbSfvjZptH-16" value="Private subnet" style="points=[[0,0],[0.25,0],[0.5,0],[0.75,0],[1,0],[1,0.25],[1,0.5],[1,0.75],[1,1],[0.75,1],[0.5,1],[0.25,1],[0,1],[0,0.75],[0,0.5],[0,0.25]];outlineConnect=0;gradientColor=none;html=1;whiteSpace=wrap;fontSize=12;fontStyle=0;shape=mxgraph.aws4.group;grIcon=mxgraph.aws4.group_security_group;grStroke=0;strokeColor=#147EBA;fillColor=#E6F2F8;verticalAlign=top;align=left;spacingLeft=30;fontColor=#147EBA;dashed=0;" vertex="1" parent="rMbr4uKZXVMbSfvjZptH-18">
          <mxGeometry x="10" y="10" width="80" height="30" as="geometry" />
        </mxCell>
        <mxCell id="rMbr4uKZXVMbSfvjZptH-19" value="" style="edgeStyle=orthogonalEdgeStyle;rounded=0;orthogonalLoop=1;jettySize=auto;html=1;" edge="1" parent="77e6c97f196da883-3" source="rMbr4uKZXVMbSfvjZptH-9" target="rMbr4uKZXVMbSfvjZptH-16">
          <mxGeometry relative="1" as="geometry" />
        </mxCell>
        <mxCell id="rMbr4uKZXVMbSfvjZptH-23" value="" style="outlineConnect=0;dashed=0;verticalLabelPosition=bottom;verticalAlign=top;align=center;html=1;shape=mxgraph.aws3.classic_load_balancer;fillColor=#F58536;gradientColor=none;" vertex="1" parent="77e6c97f196da883-3">
          <mxGeometry x="76.25" y="660" width="69" height="72" as="geometry" />
        </mxCell>
        <mxCell id="rMbr4uKZXVMbSfvjZptH-26" value="" style="endArrow=classic;html=1;exitX=0.5;exitY=1;exitDx=0;exitDy=0;exitPerimeter=0;entryX=0.5;entryY=0;entryDx=0;entryDy=0;entryPerimeter=0;edgeStyle=orthogonalEdgeStyle;" edge="1" parent="77e6c97f196da883-3" source="rMbr4uKZXVMbSfvjZptH-9" target="rMbr4uKZXVMbSfvjZptH-23">
          <mxGeometry width="50" height="50" relative="1" as="geometry">
            <mxPoint x="230" y="630" as="sourcePoint" />
            <mxPoint x="280" y="580" as="targetPoint" />
          </mxGeometry>
        </mxCell>
        <mxCell id="rMbr4uKZXVMbSfvjZptH-27" value="&lt;h1&gt;NLB&lt;/h1&gt;&lt;p&gt;Creates an internet facing NLB, configure to work with ingress&lt;/p&gt;" style="text;html=1;strokeColor=none;fillColor=none;spacing=5;spacingTop=-20;whiteSpace=wrap;overflow=hidden;rounded=0;" vertex="1" parent="77e6c97f196da883-3">
          <mxGeometry x="245" y="630" width="120" height="120" as="geometry" />
        </mxCell>
        <mxCell id="rMbr4uKZXVMbSfvjZptH-28" value="&lt;h1&gt;VPC&lt;/h1&gt;&lt;p&gt;Creates a separate VPC&lt;/p&gt;" style="text;html=1;strokeColor=none;fillColor=none;spacing=5;spacingTop=-20;whiteSpace=wrap;overflow=hidden;rounded=0;" vertex="1" parent="77e6c97f196da883-3">
          <mxGeometry x="242.5" y="300" width="125" height="80" as="geometry" />
        </mxCell>
        <mxCell id="rMbr4uKZXVMbSfvjZptH-29" value="&lt;h1&gt;Subnets&lt;/h1&gt;&lt;p&gt;&lt;span style=&quot;font-size: 11px ; text-align: center ; background-color: rgb(255 , 255 , 255)&quot;&gt;creates a triplet of public/private subnets in new VPC&lt;/span&gt;&lt;br&gt;&lt;/p&gt;" style="text;html=1;strokeColor=none;fillColor=none;spacing=5;spacingTop=-20;whiteSpace=wrap;overflow=hidden;rounded=0;" vertex="1" parent="77e6c97f196da883-3">
          <mxGeometry x="250" y="460" width="110" height="110" as="geometry" />
        </mxCell>
        <mxCell id="rMbr4uKZXVMbSfvjZptH-5" value="all terraform changes saved into state file" style="edgeStyle=orthogonalEdgeStyle;rounded=0;orthogonalLoop=1;jettySize=auto;html=1;entryX=1;entryY=0.5;entryDx=0;entryDy=0;exitX=0.5;exitY=0;exitDx=0;exitDy=0;entryPerimeter=0;" edge="1" parent="77e6c97f196da883-1" source="77e6c97f196da883-11" target="rMbr4uKZXVMbSfvjZptH-7">
          <mxGeometry relative="1" as="geometry">
            <mxPoint x="-60" y="150" as="sourcePoint" />
            <mxPoint x="260" y="200" as="targetPoint" />
          </mxGeometry>
        </mxCell>
        <mxCell id="77e6c97f196da883-4" value="High level Infra setup" style="swimlane;html=1;startSize=20;labelBorderColor=none;glass=0;" parent="77e6c97f196da883-1" vertex="1">
          <mxGeometry x="585" y="20" width="270" height="830" as="geometry" />
        </mxCell>
        <mxCell id="rMbr4uKZXVMbSfvjZptH-34" value="" style="edgeStyle=orthogonalEdgeStyle;rounded=0;orthogonalLoop=1;jettySize=auto;html=1;" edge="1" parent="77e6c97f196da883-4" source="rMbr4uKZXVMbSfvjZptH-30" target="rMbr4uKZXVMbSfvjZptH-33">
          <mxGeometry relative="1" as="geometry" />
        </mxCell>
        <mxCell id="rMbr4uKZXVMbSfvjZptH-30" value="" style="shape=image;html=1;verticalAlign=top;verticalLabelPosition=bottom;labelBackgroundColor=#ffffff;imageAspect=0;aspect=fixed;image=https://cdn1.iconfinder.com/data/icons/hex-ico/128/ingress.png" vertex="1" parent="77e6c97f196da883-4">
          <mxGeometry x="60" y="56" width="69" height="69" as="geometry" />
        </mxCell>
        <mxCell id="rMbr4uKZXVMbSfvjZptH-31" value="&lt;h1&gt;Ingress&lt;/h1&gt;&lt;p&gt;Configure external communication proxy&lt;/p&gt;" style="text;html=1;strokeColor=none;fillColor=none;spacing=5;spacingTop=-20;whiteSpace=wrap;overflow=hidden;rounded=0;" vertex="1" parent="77e6c97f196da883-4">
          <mxGeometry x="145" y="45" width="125" height="80" as="geometry" />
        </mxCell>
        <mxCell id="rMbr4uKZXVMbSfvjZptH-33" value="" style="verticalLabelPosition=bottom;html=1;verticalAlign=top;align=center;strokeColor=none;fillColor=#00BEF2;shape=mxgraph.azure.autoscale;" vertex="1" parent="77e6c97f196da883-4">
          <mxGeometry x="60" y="260" width="70.5" height="40" as="geometry" />
        </mxCell>
        <mxCell id="rMbr4uKZXVMbSfvjZptH-35" value="&lt;h1&gt;Autoscaler&amp;nbsp;&lt;/h1&gt;&lt;p&gt;Configure K8S node autoscaler service&amp;nbsp;&lt;/p&gt;" style="text;html=1;strokeColor=none;fillColor=none;spacing=5;spacingTop=-20;whiteSpace=wrap;overflow=hidden;rounded=0;" vertex="1" parent="77e6c97f196da883-4">
          <mxGeometry x="145" y="220" width="125" height="80" as="geometry" />
        </mxCell>
        <mxCell id="77e6c97f196da883-5" value="Applications Deployment" style="swimlane;html=1;startSize=20;labelBorderColor=none;glass=0;" parent="77e6c97f196da883-1" vertex="1">
          <mxGeometry x="855" y="20" width="248" height="830" as="geometry" />
        </mxCell>
        <mxCell id="rMbr4uKZXVMbSfvjZptH-73" value="" style="edgeStyle=orthogonalEdgeStyle;rounded=0;orthogonalLoop=1;jettySize=auto;html=1;" edge="1" parent="77e6c97f196da883-5" source="rMbr4uKZXVMbSfvjZptH-65" target="rMbr4uKZXVMbSfvjZptH-66">
          <mxGeometry relative="1" as="geometry" />
        </mxCell>
        <mxCell id="rMbr4uKZXVMbSfvjZptH-65" value="" style="points=[[0,0,0],[0.25,0,0],[0.5,0,0],[0.75,0,0],[1,0,0],[0,1,0],[0.25,1,0],[0.5,1,0],[0.75,1,0],[1,1,0],[0,0.25,0],[0,0.5,0],[0,0.75,0],[1,0.25,0],[1,0.5,0],[1,0.75,0]];outlineConnect=0;fontColor=#232F3E;gradientColor=#945DF2;gradientDirection=north;fillColor=#5A30B5;strokeColor=#ffffff;dashed=0;verticalLabelPosition=bottom;verticalAlign=top;align=center;html=1;fontSize=12;fontStyle=0;aspect=fixed;shape=mxgraph.aws4.resourceIcon;resIcon=mxgraph.aws4.managed_streaming_for_kafka;glass=0;" vertex="1" parent="77e6c97f196da883-5">
          <mxGeometry x="35" y="450" width="78" height="78" as="geometry" />
        </mxCell>
        <mxCell id="rMbr4uKZXVMbSfvjZptH-66" value="" style="shape=image;html=1;verticalAlign=top;verticalLabelPosition=bottom;labelBackgroundColor=#ffffff;imageAspect=0;aspect=fixed;image=https://cdn4.iconfinder.com/data/icons/logos-brands-5/24/grafana-128.png;glass=0;fillColor=#FFCCFF;gradientColor=none;" vertex="1" parent="77e6c97f196da883-5">
          <mxGeometry x="29" y="590" width="90" height="90" as="geometry" />
        </mxCell>
        <mxCell id="rMbr4uKZXVMbSfvjZptH-72" value="&lt;h1&gt;Kafka&lt;/h1&gt;&lt;p&gt;Deploy random statefull set&lt;/p&gt;" style="text;html=1;strokeColor=none;fillColor=none;spacing=5;spacingTop=-20;whiteSpace=wrap;overflow=hidden;rounded=0;" vertex="1" parent="77e6c97f196da883-5">
          <mxGeometry x="113" y="340" width="125" height="80" as="geometry" />
        </mxCell>
        <mxCell id="rMbr4uKZXVMbSfvjZptH-74" value="&lt;h1&gt;Grafana&lt;/h1&gt;&lt;p&gt;Deploy random web application&lt;/p&gt;" style="text;html=1;strokeColor=none;fillColor=none;spacing=5;spacingTop=-20;whiteSpace=wrap;overflow=hidden;rounded=0;" vertex="1" parent="77e6c97f196da883-5">
          <mxGeometry x="123" y="540" width="125" height="80" as="geometry" />
        </mxCell>
        <mxCell id="rMbr4uKZXVMbSfvjZptH-32" value="" style="endArrow=classic;html=1;entryX=0;entryY=0.5;entryDx=0;entryDy=0;exitX=0.5;exitY=1;exitDx=0;exitDy=0;exitPerimeter=0;edgeStyle=orthogonalEdgeStyle;" edge="1" parent="77e6c97f196da883-1" source="rMbr4uKZXVMbSfvjZptH-23" target="rMbr4uKZXVMbSfvjZptH-30">
          <mxGeometry width="50" height="50" relative="1" as="geometry">
            <mxPoint x="450" y="490" as="sourcePoint" />
            <mxPoint x="500" y="440" as="targetPoint" />
            <Array as="points">
              <mxPoint x="331" y="810" />
              <mxPoint x="610" y="810" />
              <mxPoint x="610" y="111" />
            </Array>
          </mxGeometry>
        </mxCell>
        <mxCell id="rMbr4uKZXVMbSfvjZptH-71" value="" style="endArrow=classic;html=1;entryX=0.5;entryY=0;entryDx=0;entryDy=0;entryPerimeter=0;exitX=0.5;exitY=0.865;exitDx=0;exitDy=0;exitPerimeter=0;edgeStyle=orthogonalEdgeStyle;" edge="1" parent="77e6c97f196da883-1" source="rMbr4uKZXVMbSfvjZptH-33" target="rMbr4uKZXVMbSfvjZptH-65">
          <mxGeometry width="50" height="50" relative="1" as="geometry">
            <mxPoint x="510" y="530" as="sourcePoint" />
            <mxPoint x="560" y="480" as="targetPoint" />
            <Array as="points">
              <mxPoint x="680" y="380" />
              <mxPoint x="929" y="380" />
            </Array>
          </mxGeometry>
        </mxCell>
        <mxCell id="rMbr4uKZXVMbSfvjZptH-3" value="" style="edgeStyle=orthogonalEdgeStyle;rounded=0;orthogonalLoop=1;jettySize=auto;html=1;" edge="1" parent="1" source="rMbr4uKZXVMbSfvjZptH-2" target="77e6c97f196da883-8">
          <mxGeometry relative="1" as="geometry" />
        </mxCell>
        <mxCell id="rMbr4uKZXVMbSfvjZptH-2" value="" style="html=1;dashed=0;whitespace=wrap;fillColor=#2875E2;strokeColor=#ffffff;points=[[0.005,0.63,0],[0.1,0.2,0],[0.9,0.2,0],[0.5,0,0],[0.995,0.63,0],[0.72,0.99,0],[0.5,1,0],[0.28,0.99,0]];shape=mxgraph.kubernetes.icon;prIcon=user" vertex="1" parent="1">
          <mxGeometry x="-20" y="131" width="50" height="48" as="geometry" />
        </mxCell>
        <mxCell id="rMbr4uKZXVMbSfvjZptH-4" value="" style="edgeStyle=orthogonalEdgeStyle;rounded=0;orthogonalLoop=1;jettySize=auto;html=1;entryX=0;entryY=0.5;entryDx=0;entryDy=0;" edge="1" parent="1" target="77e6c97f196da883-11">
          <mxGeometry relative="1" as="geometry">
            <mxPoint y="180" as="sourcePoint" />
            <mxPoint x="-20" y="230" as="targetPoint" />
            <Array as="points">
              <mxPoint y="310" />
            </Array>
          </mxGeometry>
        </mxCell>
        <mxCell id="rMbr4uKZXVMbSfvjZptH-17" value="" style="group" vertex="1" connectable="0" parent="1">
          <mxGeometry x="420" y="550" width="110" height="40" as="geometry" />
        </mxCell>
        <mxCell id="rMbr4uKZXVMbSfvjZptH-12" value="Public subnet" style="points=[[0,0],[0.25,0],[0.5,0],[0.75,0],[1,0],[1,0.25],[1,0.5],[1,0.75],[1,1],[0.75,1],[0.5,1],[0.25,1],[0,1],[0,0.75],[0,0.5],[0,0.25]];outlineConnect=0;gradientColor=none;html=1;whiteSpace=wrap;fontSize=12;fontStyle=0;shape=mxgraph.aws4.group;grIcon=mxgraph.aws4.group_security_group;grStroke=0;strokeColor=#248814;fillColor=#E9F3E6;verticalAlign=top;align=left;spacingLeft=30;fontColor=#248814;dashed=0;" vertex="1" parent="rMbr4uKZXVMbSfvjZptH-17">
          <mxGeometry width="90" height="20" as="geometry" />
        </mxCell>
        <mxCell id="rMbr4uKZXVMbSfvjZptH-13" value="Public subnet" style="points=[[0,0],[0.25,0],[0.5,0],[0.75,0],[1,0],[1,0.25],[1,0.5],[1,0.75],[1,1],[0.75,1],[0.5,1],[0.25,1],[0,1],[0,0.75],[0,0.5],[0,0.25]];outlineConnect=0;gradientColor=none;html=1;whiteSpace=wrap;fontSize=12;fontStyle=0;shape=mxgraph.aws4.group;grIcon=mxgraph.aws4.group_security_group;grStroke=0;strokeColor=#248814;fillColor=#E9F3E6;verticalAlign=top;align=left;spacingLeft=30;fontColor=#248814;dashed=0;" vertex="1" parent="rMbr4uKZXVMbSfvjZptH-17">
          <mxGeometry x="10" y="10" width="90" height="20" as="geometry" />
        </mxCell>
        <mxCell id="rMbr4uKZXVMbSfvjZptH-14" value="Public subnet" style="points=[[0,0],[0.25,0],[0.5,0],[0.75,0],[1,0],[1,0.25],[1,0.5],[1,0.75],[1,1],[0.75,1],[0.5,1],[0.25,1],[0,1],[0,0.75],[0,0.5],[0,0.25]];outlineConnect=0;gradientColor=none;html=1;whiteSpace=wrap;fontSize=12;fontStyle=0;shape=mxgraph.aws4.group;grIcon=mxgraph.aws4.group_security_group;grStroke=0;strokeColor=#248814;fillColor=#E9F3E6;verticalAlign=top;align=left;spacingLeft=30;fontColor=#248814;dashed=0;" vertex="1" parent="rMbr4uKZXVMbSfvjZptH-17">
          <mxGeometry x="20" y="20" width="90" height="20" as="geometry" />
        </mxCell>
        <mxCell id="rMbr4uKZXVMbSfvjZptH-20" value="" style="edgeStyle=orthogonalEdgeStyle;rounded=0;orthogonalLoop=1;jettySize=auto;html=1;" edge="1" parent="1" source="rMbr4uKZXVMbSfvjZptH-9" target="rMbr4uKZXVMbSfvjZptH-14">
          <mxGeometry relative="1" as="geometry">
            <Array as="points">
              <mxPoint x="401" y="510" />
              <mxPoint x="495" y="510" />
            </Array>
          </mxGeometry>
        </mxCell>
        <mxCell id="rMbr4uKZXVMbSfvjZptH-67" value="" style="strokeWidth=2;html=1;shape=mxgraph.flowchart.annotation_2;align=left;labelPosition=right;pointerEvents=1;glass=0;fillColor=#FFCCFF;gradientColor=none;direction=north;" vertex="1" parent="1">
          <mxGeometry x="290" y="895" width="850" height="50" as="geometry" />
        </mxCell>
        <mxCell id="rMbr4uKZXVMbSfvjZptH-68" value="Terraform managed stages" style="text;html=1;strokeColor=none;fillColor=none;align=center;verticalAlign=middle;whiteSpace=wrap;rounded=0;glass=0;" vertex="1" parent="1">
          <mxGeometry x="630" y="950" width="170" height="20" as="geometry" />
        </mxCell>
        <mxCell id="rMbr4uKZXVMbSfvjZptH-69" value="" style="strokeWidth=2;html=1;shape=mxgraph.flowchart.annotation_2;align=left;labelPosition=right;pointerEvents=1;glass=0;fillColor=#FFCCFF;gradientColor=none;direction=north;" vertex="1" parent="1">
          <mxGeometry x="70" y="895" width="210" height="50" as="geometry" />
        </mxCell>
        <mxCell id="rMbr4uKZXVMbSfvjZptH-70" value="Automated via python3 (boto3 native library)" style="text;html=1;strokeColor=none;fillColor=none;align=center;verticalAlign=middle;whiteSpace=wrap;rounded=0;glass=0;" vertex="1" parent="1">
          <mxGeometry x="100" y="950" width="170" height="20" as="geometry" />
        </mxCell>
      </root>
    </mxGraphModel>
  </diagram>
</mxfile>
